<svg xmlns="http://www.w3.org/2000/svg" xmlns:xlink="http://www.w3.org/1999/xlink" width="500" zoomAndPan="magnify" viewBox="0 0 375 374.999991" height="500" preserveAspectRatio="xMidYMid meet" version="1.0"><defs><filter x="0%" y="0%" width="100%" height="100%" id="5284aba579"><feColorMatrix values="0 0 0 0 1 0 0 0 0 1 0 0 0 0 1 0 0 0 1 0" color-interpolation-filters="sRGB"/></filter><g/><mask id="e393d27aa9"><g filter="url(#5284aba579)"><rect x="-37.5" width="450" fill="#000000" y="-37.499999" height="449.999989" fill-opacity="0.25"/></g></mask><clipPath id="2a1d6eb327"><path d="M 0.175781 0.175781 L 256.675781 0.175781 L 256.675781 256.675781 L 0.175781 256.675781 Z M 0.175781 0.175781 " clip-rule="nonzero"/></clipPath><clipPath id="8874d5c486"><rect x="0" width="258" y="0" height="258"/></clipPath><clipPath id="19621376c3"><rect x="0" width="267" y="0" height="234"/></clipPath></defs><g mask="url(#e393d27aa9)"><g transform="matrix(1, 0, 0, 1, 59, 59)"><g clip-path="url(#8874d5c486)"><g clip-path="url(#2a1d6eb327)"><path fill="#f79814" d="M 256.703125 128.4375 C 195.542969 116.085938 192.203125 104.511719 239.175781 63.714844 C 180.558594 84.628906 172.25 76.320312 193.167969 17.707031 C 152.367188 64.675781 140.792969 61.335938 128.4375 0.175781 C 116.085938 61.335938 104.511719 64.675781 63.714844 17.707031 C 84.628906 76.320312 76.320312 84.628906 17.707031 63.714844 C 64.675781 104.511719 61.335938 116.085938 0.175781 128.4375 C 61.335938 140.792969 64.675781 152.367188 17.707031 193.167969 C 76.320312 172.25 84.628906 180.558594 63.714844 239.171875 C 104.511719 192.203125 116.085938 195.542969 128.4375 256.703125 C 140.792969 195.542969 152.367188 192.203125 193.167969 239.171875 C 172.25 180.558594 180.558594 172.25 239.175781 193.167969 C 192.203125 152.367188 195.542969 140.792969 256.703125 128.4375 " fill-opacity="1" fill-rule="nonzero"/></g><path fill="#f68712" d="M 114.265625 56.632812 C 121.429688 52.339844 126.742188 45.058594 128.648438 36.925781 C 130.035156 43.414062 133.089844 49.84375 138.484375 53.703125 C 143.878906 57.5625 151.914062 58.136719 156.9375 53.804688 C 156.402344 55.355469 156.203125 57.023438 156.351562 58.65625 C 160.042969 60.289062 164.328125 57.832031 166.90625 54.730469 C 169.488281 51.628906 171.21875 47.796875 174.304688 45.199219 C 172.429688 51.457031 170.546875 58.113281 172.25 64.421875 C 173.949219 70.730469 180.75 76.128906 186.875 73.855469 C 184.742188 75.75 183.152344 78.257812 182.351562 80.996094 C 188.925781 86.363281 198.898438 87.105469 206.195312 82.765625 C 201.882812 86.570312 198.242188 91.414062 197.042969 97.035156 C 195.835938 102.660156 197.476562 109.09375 202.03125 112.601562 C 202.03125 112.746094 202.425781 112.9375 202.425781 113.078125 C 208.628906 121.035156 217.527344 126.089844 227.503906 127.597656 C 218.730469 128.894531 210.148438 133.292969 205.214844 140.660156 C 200.277344 148.023438 199.6875 158.496094 204.980469 165.609375 C 203.574219 165.324219 202.167969 165.035156 200.761719 164.746094 C 199.339844 167.03125 201.050781 169.957031 202.878906 171.929688 C 205.75 175.035156 209.089844 177.714844 212.746094 179.847656 C 208.703125 177.792969 204.554688 175.699219 200.050781 175.175781 C 195.542969 174.652344 188.183594 174.238281 185.542969 177.925781 C 177.726562 188.851562 173.449219 202.144531 177.1875 215.046875 C 171.949219 209.175781 165.070312 204.785156 157.539062 202.507812 C 154.253906 201.511719 150.695312 200.914062 147.414062 201.929688 C 141.355469 203.796875 138.148438 210.425781 136.835938 216.628906 C 136.273438 215.113281 136.261719 213.410156 135.503906 211.980469 C 134.746094 210.554688 132.703125 209.574219 131.523438 210.675781 C 131.050781 211.117188 130.851562 211.769531 130.679688 212.386719 C 128.640625 219.707031 127.746094 227.292969 126.863281 234.839844 C 125.996094 227.097656 124.585938 219.417969 122.652344 211.875 C 120.609375 203.921875 109.035156 199.890625 100.925781 201.191406 C 92.820312 202.488281 85.773438 207.722656 80.597656 214.09375 C 82.15625 209.589844 83.726562 205.042969 84.292969 200.308594 C 84.855469 195.578125 84.339844 190.578125 81.953125 186.457031 C 79.375 182.019531 74.835938 178.972656 69.980469 177.324219 C 65.121094 175.671875 59.933594 175.289062 54.804688 175.164062 C 52.789062 175.117188 50.664062 175.132812 48.902344 176.113281 C 52.726562 171.753906 52.824219 165.808594 53.648438 160.070312 C 54.757812 152.351562 55.046875 143.839844 50.570312 137.457031 C 46.414062 131.53125 39.136719 128.8125 32.308594 126.425781 C 39.246094 127.636719 46.601562 124.554688 51.152344 119.183594 C 55.707031 113.808594 57.554688 106.417969 56.785156 99.414062 C 55.925781 91.59375 51.875 84.167969 45.757812 79.210938 C 48.46875 80.5 51.179688 81.789062 53.890625 83.082031 C 56.292969 84.226562 58.996094 85.394531 61.527344 84.570312 C 64.054688 83.75 65.414062 79.816406 63.144531 78.421875 C 65.121094 81.1875 69.402344 81.410156 72.34375 79.710938 C 75.28125 78.011719 77.117188 74.914062 78.511719 71.816406 C 82.113281 63.824219 83.628906 54.898438 82.871094 46.164062 C 87.390625 53.695312 96.945312 56.769531 105.714844 57.269531 C 108.671875 57.4375 111.722656 58.15625 114.265625 56.632812 " fill-opacity="1" fill-rule="nonzero"/><path fill="#fabe11" d="M 195.542969 128.4375 C 195.542969 91.378906 165.5 61.335938 128.4375 61.335938 C 91.378906 61.335938 61.335938 91.378906 61.335938 128.4375 C 61.335938 165.5 91.378906 195.542969 128.4375 195.542969 C 165.5 195.542969 195.542969 165.5 195.542969 128.4375 " fill-opacity="1" fill-rule="nonzero"/><path fill="#fddd10" d="M 178.941406 117.214844 C 178.941406 144.296875 156.988281 166.25 129.902344 166.25 C 102.824219 166.25 80.867188 144.296875 80.867188 117.214844 C 80.867188 90.132812 102.824219 68.175781 129.902344 68.175781 C 156.988281 68.175781 178.941406 90.132812 178.941406 117.214844 " fill-opacity="1" fill-rule="nonzero"/></g></g></g><g transform="matrix(1, 0, 0, 1, 54, 70)"><g clip-path="url(#19621376c3)"><g fill="#abe6fc" fill-opacity="1"><g transform="translate(0.671151, 187.16817)"><g><path d="M 131.03125 -90.007812 L 107.972656 -90.007812 L 106.75 -95.796875 C 105.632812 -101.09375 103.53125 -105.5 100.457031 -109.011719 C 97.285156 -112.632812 93.457031 -115.375 88.96875 -117.246094 C 84.339844 -119.175781 79.378906 -120.140625 74.085938 -120.140625 C 66.910156 -120.140625 60.445312 -118.34375 54.695312 -114.75 C 48.953125 -111.164062 44.347656 -105.785156 40.882812 -98.621094 C 37.289062 -91.191406 35.496094 -81.90625 35.496094 -70.765625 C 35.496094 -59.625 37.289062 -50.34375 40.882812 -42.914062 C 44.347656 -35.75 48.953125 -30.371094 54.695312 -26.785156 C 60.445312 -23.191406 66.910156 -21.394531 74.085938 -21.394531 C 79.378906 -21.394531 84.339844 -22.359375 88.96875 -24.289062 C 93.457031 -26.160156 97.285156 -28.902344 100.457031 -32.523438 C 103.53125 -36.035156 105.632812 -40.441406 106.75 -45.738281 L 107.972656 -51.527344 L 139.769531 -51.527344 L 138.210938 -42.929688 C 136.246094 -32.070312 132.199219 -22.722656 126.066406 -14.886719 C 119.949219 -7.070312 112.367188 -1.082031 103.324219 3.074219 C 94.386719 7.179688 84.640625 9.234375 74.085938 9.234375 C 60.613281 9.234375 48.585938 5.914062 38 -0.730469 C 27.4375 -7.355469 19.15625 -16.722656 13.15625 -28.824219 C 7.261719 -40.71875 4.3125 -54.699219 4.3125 -70.765625 C 4.3125 -86.835938 7.261719 -100.816406 13.15625 -112.710938 C 19.15625 -124.8125 27.4375 -134.179688 38 -140.804688 C 48.585938 -147.449219 60.613281 -150.769531 74.085938 -150.769531 C 84.640625 -150.769531 94.386719 -148.714844 103.324219 -144.605469 C 112.367188 -140.453125 119.949219 -134.464844 126.066406 -126.648438 C 132.199219 -118.8125 136.246094 -109.464844 138.210938 -98.605469 L 139.769531 -90.007812 Z M 131.03125 -104.601562 L 131.03125 -97.304688 L 123.847656 -96.007812 C 122.3125 -104.496094 119.21875 -111.710938 114.570312 -117.652344 C 109.910156 -123.609375 104.128906 -128.175781 97.230469 -131.34375 C 90.226562 -134.5625 82.511719 -136.171875 74.085938 -136.171875 C 63.414062 -136.171875 53.972656 -133.59375 45.757812 -128.441406 C 37.523438 -123.273438 31.015625 -115.871094 26.234375 -106.226562 C 21.351562 -96.375 18.910156 -84.554688 18.910156 -70.765625 C 18.910156 -56.980469 21.351562 -45.160156 26.234375 -35.308594 C 31.015625 -25.664062 37.523438 -18.261719 45.757812 -13.09375 C 53.972656 -7.941406 63.414062 -5.363281 74.085938 -5.363281 C 82.511719 -5.363281 90.226562 -6.972656 97.230469 -10.191406 C 104.128906 -13.359375 109.910156 -17.925781 114.570312 -23.882812 C 119.21875 -29.824219 122.3125 -37.039062 123.847656 -45.527344 L 131.03125 -44.230469 L 131.03125 -36.929688 L 113.890625 -36.929688 L 113.890625 -44.230469 L 121.03125 -42.722656 C 119.386719 -34.933594 116.1875 -28.328125 111.433594 -22.902344 C 106.773438 -17.582031 101.15625 -13.554688 94.582031 -10.816406 C 88.15625 -8.140625 81.324219 -6.800781 74.085938 -6.800781 C 64.121094 -6.800781 55.082031 -9.335938 46.964844 -14.40625 C 38.839844 -19.480469 32.429688 -26.863281 27.742188 -36.558594 C 23.179688 -45.996094 20.898438 -57.398438 20.898438 -70.765625 C 20.898438 -84.136719 23.179688 -95.539062 27.742188 -104.976562 C 32.429688 -114.671875 38.839844 -122.054688 46.964844 -127.128906 C 55.082031 -132.199219 64.121094 -134.734375 74.085938 -134.734375 C 81.324219 -134.734375 88.15625 -133.394531 94.582031 -130.71875 C 101.15625 -127.980469 106.773438 -123.953125 111.433594 -118.632812 C 116.1875 -113.207031 119.386719 -106.601562 121.03125 -98.8125 L 113.890625 -97.304688 L 113.890625 -104.601562 Z M 131.03125 -104.601562 "/></g></g></g><g fill="#abe6fc" fill-opacity="1"><g transform="translate(142.200875, 187.16817)"><g><path d="M 87.292969 -105.292969 C 87.003906 -107.722656 86.304688 -109.839844 85.191406 -111.640625 C 84.074219 -113.441406 82.496094 -115.015625 80.445312 -116.359375 C 75.765625 -119.433594 69.867188 -120.96875 62.75 -120.96875 C 55.023438 -120.96875 48.960938 -119.257812 44.566406 -115.835938 C 42.5625 -114.28125 41.097656 -112.582031 40.160156 -110.742188 C 39.261719 -108.980469 38.8125 -106.988281 38.8125 -104.769531 C 38.8125 -103.128906 39.042969 -101.703125 39.5 -100.496094 C 39.910156 -99.425781 40.519531 -98.480469 41.339844 -97.664062 C 43.75 -95.25 46.628906 -93.367188 49.976562 -92.007812 C 53.949219 -90.398438 57.539062 -89.171875 60.738281 -88.328125 L 75.152344 -84.449219 C 79.050781 -83.425781 83.386719 -82.019531 88.15625 -80.226562 C 93.273438 -78.304688 98.167969 -75.703125 102.84375 -72.421875 C 107.867188 -68.898438 112.003906 -64.410156 115.253906 -58.953125 C 118.65625 -53.242188 120.359375 -46.398438 120.359375 -38.425781 C 120.359375 -29.34375 117.980469 -21.113281 113.214844 -13.734375 C 108.484375 -6.402344 101.683594 -0.617188 92.8125 3.613281 C 84.195312 7.730469 73.894531 9.785156 61.921875 9.785156 C 45.003906 9.785156 31.410156 5.65625 21.136719 -2.605469 C 15.871094 -6.839844 11.78125 -11.761719 8.867188 -17.367188 C 5.960938 -22.960938 4.265625 -29.160156 3.777344 -35.96875 L 3.21875 -43.789062 L 35.445312 -43.789062 L 36.019531 -37.117188 C 36.339844 -33.40625 37.527344 -30.421875 39.578125 -28.160156 C 41.898438 -25.601562 44.902344 -23.6875 48.585938 -22.410156 C 52.671875 -20.996094 57.117188 -20.289062 61.921875 -20.289062 C 67.503906 -20.289062 72.449219 -21.179688 76.765625 -22.953125 C 80.796875 -24.613281 83.9375 -26.867188 86.1875 -29.714844 C 88.183594 -32.238281 89.179688 -35.230469 89.179688 -38.699219 C 89.179688 -41.546875 88.480469 -43.753906 87.085938 -45.320312 C 85.179688 -47.460938 82.578125 -49.238281 79.285156 -50.65625 C 75.304688 -52.367188 70.984375 -53.871094 66.328125 -55.167969 L 48.859375 -60.15625 C 36.699219 -63.652344 26.96875 -68.734375 19.679688 -75.402344 C 15.660156 -79.074219 12.640625 -83.335938 10.613281 -88.183594 C 8.625 -92.945312 7.628906 -98.195312 7.628906 -103.941406 C 7.628906 -113.445312 10.25 -121.800781 15.488281 -129 C 20.554688 -135.964844 27.324219 -141.355469 35.804688 -145.179688 C 44.058594 -148.90625 53.226562 -150.769531 63.304688 -150.769531 C 73.488281 -150.769531 82.609375 -148.921875 90.667969 -145.234375 C 98.898438 -141.464844 105.472656 -136.269531 110.390625 -129.640625 C 115.464844 -122.800781 118.140625 -115.046875 118.421875 -106.386719 L 118.664062 -98.851562 L 88.054688 -98.851562 Z M 101.789062 -107.007812 L 94.539062 -106.152344 L 94.539062 -113.449219 L 111.128906 -113.449219 L 111.128906 -106.152344 L 103.832031 -105.914062 C 103.652344 -111.535156 101.929688 -116.546875 98.664062 -120.945312 C 95.242188 -125.5625 90.550781 -129.234375 84.59375 -131.960938 C 78.460938 -134.769531 71.367188 -136.171875 63.304688 -136.171875 C 55.320312 -136.171875 48.152344 -134.738281 41.804688 -131.875 C 35.679688 -129.113281 30.839844 -125.292969 27.289062 -120.414062 C 23.914062 -115.773438 22.226562 -110.28125 22.226562 -103.941406 C 22.226562 -100.148438 22.84375 -96.773438 24.078125 -93.8125 C 25.277344 -90.945312 27.09375 -88.398438 29.527344 -86.175781 C 35.136719 -81.046875 42.914062 -77.050781 52.867188 -74.191406 L 70.234375 -69.230469 C 75.527344 -67.757812 80.464844 -66.039062 85.054688 -64.066406 C 90.332031 -61.796875 94.640625 -58.78125 97.988281 -55.027344 C 101.84375 -50.695312 103.773438 -45.253906 103.773438 -38.699219 C 103.773438 -31.851562 101.730469 -25.839844 97.640625 -20.664062 C 93.8125 -15.820312 88.703125 -12.082031 82.320312 -9.457031 C 76.226562 -6.949219 69.425781 -5.695312 61.921875 -5.695312 C 55.484375 -5.695312 49.445312 -6.667969 43.8125 -8.617188 C 37.777344 -10.707031 32.761719 -13.949219 28.769531 -18.351562 C 24.511719 -23.046875 22.078125 -28.882812 21.476562 -35.863281 L 28.75 -36.488281 L 28.75 -29.191406 L 11.058594 -29.191406 L 11.058594 -36.488281 L 18.335938 -37.007812 C 18.679688 -32.207031 19.839844 -27.902344 21.816406 -24.097656 C 23.789062 -20.304688 26.609375 -16.933594 30.28125 -13.980469 C 37.882812 -7.867188 48.429688 -4.808594 61.921875 -4.808594 C 71.691406 -4.808594 79.894531 -6.394531 86.523438 -9.558594 C 92.90625 -12.605469 97.714844 -16.632812 100.953125 -21.648438 C 104.160156 -26.617188 105.765625 -32.210938 105.765625 -38.425781 C 105.765625 -43.71875 104.746094 -48.070312 102.714844 -51.480469 C 100.53125 -55.148438 97.777344 -58.144531 94.460938 -60.472656 C 90.796875 -63.046875 86.984375 -65.074219 83.023438 -66.5625 C 78.722656 -68.179688 74.832031 -69.441406 71.359375 -70.355469 L 57.023438 -74.214844 C 53.222656 -75.214844 49.042969 -76.636719 44.492188 -78.484375 C 39.316406 -80.582031 34.824219 -83.535156 31.019531 -87.339844 C 28.726562 -89.632812 27.007812 -92.289062 25.859375 -95.308594 C 24.761719 -98.1875 24.214844 -101.339844 24.214844 -104.769531 C 24.214844 -109.324219 25.195312 -113.523438 27.152344 -117.367188 C 29.074219 -121.136719 31.890625 -124.46875 35.601562 -127.355469 C 42.632812 -132.828125 51.683594 -135.5625 62.75 -135.5625 C 72.773438 -135.5625 81.34375 -133.230469 88.457031 -128.5625 C 92.304688 -126.035156 95.355469 -122.957031 97.601562 -119.320312 C 99.851562 -115.683594 101.246094 -111.582031 101.789062 -107.007812 Z M 101.789062 -107.007812 "/></g></g></g><g fill="#abe6fc" fill-opacity="1"><g transform="translate(0.671151, 187.16817)"><g><path d="M 131.03125 -97.3125 L 113.890625 -97.3125 C 112.503906 -103.851562 109.851562 -109.359375 105.9375 -113.828125 C 102.019531 -118.296875 97.296875 -121.679688 91.765625 -123.984375 C 86.242188 -126.285156 80.347656 -127.4375 74.078125 -127.4375 C 65.515625 -127.4375 57.765625 -125.269531 50.828125 -120.9375 C 43.890625 -116.601562 38.382812 -110.222656 34.3125 -101.796875 C 30.238281 -93.367188 28.203125 -83.023438 28.203125 -70.765625 C 28.203125 -58.515625 30.238281 -48.171875 34.3125 -39.734375 C 38.382812 -31.304688 43.890625 -24.925781 50.828125 -20.59375 C 57.765625 -16.257812 65.515625 -14.09375 74.078125 -14.09375 C 80.347656 -14.09375 86.242188 -15.242188 91.765625 -17.546875 C 97.296875 -19.859375 102.019531 -23.25 105.9375 -27.71875 C 109.851562 -32.1875 112.503906 -37.691406 113.890625 -44.234375 L 131.03125 -44.234375 C 129.28125 -34.554688 125.707031 -26.269531 120.3125 -19.375 C 114.925781 -12.488281 108.25 -7.210938 100.28125 -3.546875 C 92.3125 0.109375 83.578125 1.9375 74.078125 1.9375 C 62.015625 1.9375 51.28125 -1.007812 41.875 -6.90625 C 32.476562 -12.800781 25.082031 -21.1875 19.6875 -32.0625 C 14.300781 -42.9375 11.609375 -55.835938 11.609375 -70.765625 C 11.609375 -85.691406 14.300781 -98.59375 19.6875 -109.46875 C 25.082031 -120.34375 32.476562 -128.726562 41.875 -134.625 C 51.28125 -140.519531 62.015625 -143.46875 74.078125 -143.46875 C 83.578125 -143.46875 92.3125 -141.632812 100.28125 -137.96875 C 108.25 -134.3125 114.925781 -129.035156 120.3125 -122.140625 C 125.707031 -115.253906 129.28125 -106.976562 131.03125 -97.3125 Z M 131.03125 -97.3125 "/></g></g></g><g fill="#abe6fc" fill-opacity="1"><g transform="translate(142.200875, 187.16817)"><g><path d="M 94.546875 -106.15625 C 93.710938 -113.15625 90.347656 -118.585938 84.453125 -122.453125 C 78.554688 -126.328125 71.320312 -128.265625 62.75 -128.265625 C 53.351562 -128.265625 45.796875 -126.039062 40.078125 -121.59375 C 34.367188 -117.144531 31.515625 -111.535156 31.515625 -104.765625 C 31.515625 -99.703125 33.066406 -95.613281 36.171875 -92.5 C 39.285156 -89.394531 42.972656 -86.976562 47.234375 -85.25 C 51.492188 -83.519531 55.375 -82.191406 58.875 -81.265625 L 73.25 -77.40625 C 76.9375 -76.4375 81.046875 -75.097656 85.578125 -73.390625 C 90.117188 -71.691406 94.472656 -69.378906 98.640625 -66.453125 C 102.816406 -63.523438 106.265625 -59.78125 108.984375 -55.21875 C 111.703125 -50.65625 113.0625 -45.054688 113.0625 -38.421875 C 113.0625 -30.773438 111.066406 -23.863281 107.078125 -17.6875 C 103.097656 -11.519531 97.296875 -6.613281 89.671875 -2.96875 C 82.046875 0.664062 72.796875 2.484375 61.921875 2.484375 C 46.710938 2.484375 34.640625 -1.109375 25.703125 -8.296875 C 16.765625 -15.484375 11.882812 -24.878906 11.0625 -36.484375 L 28.75 -36.484375 C 29.207031 -31.140625 31.015625 -26.726562 34.171875 -23.25 C 37.328125 -19.769531 41.332031 -17.191406 46.1875 -15.515625 C 51.050781 -13.835938 56.296875 -13 61.921875 -13 C 68.460938 -13 74.335938 -14.066406 79.546875 -16.203125 C 84.753906 -18.347656 88.875 -21.34375 91.90625 -25.1875 C 94.945312 -29.03125 96.46875 -33.535156 96.46875 -38.703125 C 96.46875 -43.398438 95.15625 -47.222656 92.53125 -50.171875 C 89.90625 -53.117188 86.453125 -55.515625 82.171875 -57.359375 C 77.890625 -59.203125 73.257812 -60.816406 68.28125 -62.203125 L 50.859375 -67.171875 C 39.804688 -70.347656 31.050781 -74.882812 24.59375 -80.78125 C 18.144531 -86.6875 14.921875 -94.40625 14.921875 -103.9375 C 14.921875 -111.863281 17.070312 -118.785156 21.375 -124.703125 C 25.6875 -130.628906 31.492188 -135.238281 38.796875 -138.53125 C 46.109375 -141.820312 54.273438 -143.46875 63.296875 -143.46875 C 72.421875 -143.46875 80.53125 -141.84375 87.625 -138.59375 C 94.71875 -135.34375 100.347656 -130.90625 104.515625 -125.28125 C 108.691406 -119.664062 110.894531 -113.289062 111.125 -106.15625 Z M 94.546875 -106.15625 "/></g></g></g></g></g></svg>