<!DOCTYPE svg PUBLIC "-//W3C//DTD SVG 1.1//EN" "http://www.w3.org/Graphics/SVG/1.1/DTD/svg11.dtd">
<!-- Uploaded to: SVG Repo, www.svgrepo.com, Transformed by: SVG Repo Mixer Tools -->
<svg width="800px" height="800px" viewBox="0 0 24 24" fill="none" xmlns="http://www.w3.org/2000/svg">
<g id="SVGRepo_bgCarrier" stroke-width="0"/>
<g id="SVGRepo_tracerCarrier" stroke-linecap="round" stroke-linejoin="round"/>
<g id="SVGRepo_iconCarrier"> <path d="M3 11.5C3 10.6716 3.67157 10 4.5 10C5.32843 10 6 10.6716 6 11.5V14H18V11.5C18 10.6716 18.6716 10 19.5 10C20.3284 10 21 10.6716 21 11.5V16.5C21 17.3284 20.3284 18 19.5 18H4.5C3.67157 18 3 17.3284 3 16.5V11.5Z" fill="#000000"/> <path d="M5.5 7.5C5.5 6.67157 6.17157 6 7 6H17C17.8284 6 18.5 6.67157 18.5 7.5V9.20802C17.617 9.5938 17 10.4748 17 11.5V13H7L7 11.5C7 10.4748 6.38295 9.5938 5.5 9.20802V7.5Z" fill="#000000"/> </g>
</svg>